<svg xmlns="http://www.w3.org/2000/svg" viewBox="7.6 -0.4 2542.8 959.8" width="2542.8" height="959.8" role="img">
  <path d="M60 51L466 52L520 61L566 77L603 96L640 122L669 149L697 183L720 220L736 256L749 301L755 344L755 389L749 432L736 477L716 520L691 558L661 592L624 623L587 646L523 671L464 681L59 681L60 52ZM873 51L982 52L1002 56L1030 68L1422 351L1420 485L1010 189L1010 681L873 681L873 52ZM2006 51L2150 52L2178 63L2196 80L2498 680L2335 681L2092 199L1851 681L1688 681L2001 56L2006 52ZM196 184L458 184L508 196L552 221L586 255L612 302L623 350L623 383L619 408L601 455L586 478L566 500L539 521L519 532L486 544L456 549L196 549L196 185ZM631 794L661 796L674 802L681 810L672 817L664 810L653 806L635 805L618 811L607 821L599 838L598 859L603 875L616 890L630 896L648 897L670 889L674 885L674 859L640 858L640 847L685 847L685 892L674 900L656 907L634 908L620 905L603 895L593 883L587 869L587 834L593 820L606 805L620 797L631 795ZM1704 795L1716 795L1765 903L1765 906L1752 906L1740 877L1679 877L1667 906L1654 906L1704 796ZM2438 795L2450 795L2499 903L2499 906L2485 904L2474 877L2413 877L2402 904L2388 906L2438 796ZM60 796L140 796L139 807L72 807L73 845L133 845L133 856L73 856L72 895L141 896L140 906L60 905L60 797ZM316 796L329 797L396 883L397 796L409 796L409 906L399 906L396 903L329 817L328 906L316 906L316 797ZM864 796L943 796L943 807L876 807L876 845L936 845L936 856L876 856L876 895L944 895L944 906L864 906L864 797ZM1119 796L1131 796L1134 799L1199 883L1200 796L1212 796L1212 906L1200 904L1132 816L1131 906L1119 906L1119 797ZM1394 796L1406 796L1406 845L1469 845L1470 796L1482 796L1482 906L1470 906L1469 856L1406 856L1406 905L1393 905L1394 797ZM1938 796L1995 796L2008 800L2020 810L2025 824L2023 842L2016 852L2004 859L1996 860L1996 863L2028 904L2014 906L1982 863L1950 863L1950 906L1938 906L1938 797ZM2203 796L2215 796L2215 906L2203 906L2203 797ZM1950 807L1996 808L2009 816L2013 827L2011 839L1998 850L1950 852L1950 808ZM1709 810L1734 863L1734 866L1685 866L1709 811ZM2443 810L2468 862L2468 866L2419 866L2443 811Z" fill="#FFFFFF" fill-rule="evenodd"></path>
  <path d="M1453 51L1590 51L1590 681L1481 681L1452 674L1431 664L1040 381L1040 248L1043 248L1452 544L1453 52Z" fill="#FFFFFF" fill-rule="evenodd"></path>
</svg>